<mxfile host="www.draw.io" modified="2020-01-10T10:01:40.651Z" agent="Mozilla/5.0 (Macintosh; Intel Mac OS X 10_15_2) AppleWebKit/537.36 (KHTML, like Gecko) Chrome/79.0.3945.88 Safari/537.36" etag="UOtA5D0xLChMRLuYTwSo" version="12.5.1" type="github" pages="2">
  <diagram id="jgC2EDLVxiovIHimK3W9" name="Page-1">
    <mxGraphModel dx="2066" dy="1082" grid="1" gridSize="10" guides="1" tooltips="1" connect="1" arrows="1" fold="1" page="1" pageScale="1" pageWidth="1169" pageHeight="827" math="0" shadow="0">
      <root>
        <mxCell id="0"/>
        <mxCell id="1" parent="0"/>
        <mxCell id="Fibi4oow3m4IaK2Aguh2-10" value="" style="group" parent="1" vertex="1" connectable="0">
          <mxGeometry x="162" y="60" width="180" height="180" as="geometry"/>
        </mxCell>
        <mxCell id="Fibi4oow3m4IaK2Aguh2-9" value="" style="rounded=1;whiteSpace=wrap;html=1;dashed=1;fillColor=none;" parent="Fibi4oow3m4IaK2Aguh2-10" vertex="1">
          <mxGeometry width="180" height="180" as="geometry"/>
        </mxCell>
        <mxCell id="Fibi4oow3m4IaK2Aguh2-1" value="MapStateWalkRoute" style="rounded=0;whiteSpace=wrap;html=1;" parent="Fibi4oow3m4IaK2Aguh2-10" vertex="1">
          <mxGeometry x="18" y="20" width="146" height="60" as="geometry"/>
        </mxCell>
        <mxCell id="Fibi4oow3m4IaK2Aguh2-6" value="WalkRoutePresenter" style="rounded=0;whiteSpace=wrap;html=1;" parent="Fibi4oow3m4IaK2Aguh2-10" vertex="1">
          <mxGeometry x="18" y="100" width="146" height="60" as="geometry"/>
        </mxCell>
        <mxCell id="Fibi4oow3m4IaK2Aguh2-11" value="" style="group" parent="1" vertex="1" connectable="0">
          <mxGeometry x="600" y="60" width="180" height="180" as="geometry"/>
        </mxCell>
        <mxCell id="Fibi4oow3m4IaK2Aguh2-12" value="" style="rounded=1;whiteSpace=wrap;html=1;dashed=1;fillColor=none;" parent="Fibi4oow3m4IaK2Aguh2-11" vertex="1">
          <mxGeometry width="180" height="180" as="geometry"/>
        </mxCell>
        <mxCell id="Fibi4oow3m4IaK2Aguh2-13" value="MapStateBusRoute" style="rounded=0;whiteSpace=wrap;html=1;" parent="Fibi4oow3m4IaK2Aguh2-11" vertex="1">
          <mxGeometry x="18" y="20" width="146" height="60" as="geometry"/>
        </mxCell>
        <mxCell id="Fibi4oow3m4IaK2Aguh2-14" value="BusRoutePresenter" style="rounded=0;whiteSpace=wrap;html=1;" parent="Fibi4oow3m4IaK2Aguh2-11" vertex="1">
          <mxGeometry x="18" y="100" width="146" height="60" as="geometry"/>
        </mxCell>
        <mxCell id="Fibi4oow3m4IaK2Aguh2-15" value="" style="group" parent="1" vertex="1" connectable="0">
          <mxGeometry x="380" y="60" width="180" height="180" as="geometry"/>
        </mxCell>
        <mxCell id="Fibi4oow3m4IaK2Aguh2-16" value="" style="rounded=1;whiteSpace=wrap;html=1;dashed=1;fillColor=none;" parent="Fibi4oow3m4IaK2Aguh2-15" vertex="1">
          <mxGeometry width="180" height="180" as="geometry"/>
        </mxCell>
        <mxCell id="Fibi4oow3m4IaK2Aguh2-17" value="MapStateBikeRoute" style="rounded=0;whiteSpace=wrap;html=1;" parent="Fibi4oow3m4IaK2Aguh2-15" vertex="1">
          <mxGeometry x="18" y="20" width="146" height="60" as="geometry"/>
        </mxCell>
        <mxCell id="Fibi4oow3m4IaK2Aguh2-18" value="BikeRoutePresenter" style="rounded=0;whiteSpace=wrap;html=1;" parent="Fibi4oow3m4IaK2Aguh2-15" vertex="1">
          <mxGeometry x="18" y="100" width="146" height="60" as="geometry"/>
        </mxCell>
        <mxCell id="Fibi4oow3m4IaK2Aguh2-19" value="" style="group" parent="1" vertex="1" connectable="0">
          <mxGeometry x="820" y="60" width="180" height="180" as="geometry"/>
        </mxCell>
        <mxCell id="Fibi4oow3m4IaK2Aguh2-20" value="" style="rounded=1;whiteSpace=wrap;html=1;dashed=1;fillColor=none;" parent="Fibi4oow3m4IaK2Aguh2-19" vertex="1">
          <mxGeometry width="180" height="180" as="geometry"/>
        </mxCell>
        <mxCell id="Fibi4oow3m4IaK2Aguh2-21" value="MapStateCarRoute" style="rounded=0;whiteSpace=wrap;html=1;" parent="Fibi4oow3m4IaK2Aguh2-19" vertex="1">
          <mxGeometry x="18" y="20" width="146" height="60" as="geometry"/>
        </mxCell>
        <mxCell id="Fibi4oow3m4IaK2Aguh2-22" value="CarRoutePresenter" style="rounded=0;whiteSpace=wrap;html=1;" parent="Fibi4oow3m4IaK2Aguh2-19" vertex="1">
          <mxGeometry x="18" y="100" width="146" height="60" as="geometry"/>
        </mxCell>
        <mxCell id="Fibi4oow3m4IaK2Aguh2-26" value="" style="group" parent="1" vertex="1" connectable="0">
          <mxGeometry x="160" y="260" width="840" height="190" as="geometry"/>
        </mxCell>
        <mxCell id="Fibi4oow3m4IaK2Aguh2-25" value="" style="rounded=1;whiteSpace=wrap;html=1;fillColor=none;dashed=1;" parent="Fibi4oow3m4IaK2Aguh2-26" vertex="1">
          <mxGeometry width="840" height="190" as="geometry"/>
        </mxCell>
        <mxCell id="Fibi4oow3m4IaK2Aguh2-23" value="RouteSearchManager" style="rounded=0;whiteSpace=wrap;html=1;fillColor=#ffffff;" parent="Fibi4oow3m4IaK2Aguh2-26" vertex="1">
          <mxGeometry x="20" y="20" width="800" height="60" as="geometry"/>
        </mxCell>
        <mxCell id="Fibi4oow3m4IaK2Aguh2-24" value="RouteSearchService" style="rounded=0;whiteSpace=wrap;html=1;fillColor=#ffffff;" parent="Fibi4oow3m4IaK2Aguh2-26" vertex="1">
          <mxGeometry x="20" y="110" width="800" height="60" as="geometry"/>
        </mxCell>
      </root>
    </mxGraphModel>
  </diagram>
  <diagram id="9jJm_mbUdkZKI4SASEV5" name="Page-2">
    <mxGraphModel dx="2066" dy="1082" grid="1" gridSize="10" guides="1" tooltips="1" connect="1" arrows="1" fold="1" page="1" pageScale="1" pageWidth="1169" pageHeight="827" math="0" shadow="0">
      <root>
        <mxCell id="T8uGLuJxAfSS2lsafKt5-0"/>
        <mxCell id="T8uGLuJxAfSS2lsafKt5-1" parent="T8uGLuJxAfSS2lsafKt5-0"/>
        <mxCell id="T8uGLuJxAfSS2lsafKt5-2" value="" style="group" vertex="1" connectable="0" parent="T8uGLuJxAfSS2lsafKt5-1">
          <mxGeometry x="162" y="60" width="180" height="180" as="geometry"/>
        </mxCell>
        <mxCell id="T8uGLuJxAfSS2lsafKt5-3" value="" style="rounded=1;whiteSpace=wrap;html=1;dashed=1;fillColor=none;" vertex="1" parent="T8uGLuJxAfSS2lsafKt5-2">
          <mxGeometry width="180" height="180" as="geometry"/>
        </mxCell>
        <mxCell id="T8uGLuJxAfSS2lsafKt5-4" value="MapStateWalkRoute" style="rounded=0;whiteSpace=wrap;html=1;" vertex="1" parent="T8uGLuJxAfSS2lsafKt5-2">
          <mxGeometry x="18" y="20" width="146" height="60" as="geometry"/>
        </mxCell>
        <mxCell id="T8uGLuJxAfSS2lsafKt5-5" value="WalkRoutePresenter" style="rounded=0;whiteSpace=wrap;html=1;" vertex="1" parent="T8uGLuJxAfSS2lsafKt5-2">
          <mxGeometry x="18" y="100" width="146" height="60" as="geometry"/>
        </mxCell>
        <mxCell id="T8uGLuJxAfSS2lsafKt5-6" value="" style="group" vertex="1" connectable="0" parent="T8uGLuJxAfSS2lsafKt5-1">
          <mxGeometry x="600" y="60" width="180" height="180" as="geometry"/>
        </mxCell>
        <mxCell id="T8uGLuJxAfSS2lsafKt5-7" value="" style="rounded=1;whiteSpace=wrap;html=1;dashed=1;fillColor=none;" vertex="1" parent="T8uGLuJxAfSS2lsafKt5-6">
          <mxGeometry width="180" height="180" as="geometry"/>
        </mxCell>
        <mxCell id="T8uGLuJxAfSS2lsafKt5-8" value="MapStateBusRoute" style="rounded=0;whiteSpace=wrap;html=1;" vertex="1" parent="T8uGLuJxAfSS2lsafKt5-6">
          <mxGeometry x="18" y="20" width="146" height="60" as="geometry"/>
        </mxCell>
        <mxCell id="T8uGLuJxAfSS2lsafKt5-9" value="BusRoutePresenter" style="rounded=0;whiteSpace=wrap;html=1;" vertex="1" parent="T8uGLuJxAfSS2lsafKt5-6">
          <mxGeometry x="18" y="100" width="146" height="60" as="geometry"/>
        </mxCell>
        <mxCell id="T8uGLuJxAfSS2lsafKt5-10" value="" style="group" vertex="1" connectable="0" parent="T8uGLuJxAfSS2lsafKt5-1">
          <mxGeometry x="380" y="60" width="180" height="180" as="geometry"/>
        </mxCell>
        <mxCell id="T8uGLuJxAfSS2lsafKt5-11" value="" style="rounded=1;whiteSpace=wrap;html=1;dashed=1;fillColor=none;" vertex="1" parent="T8uGLuJxAfSS2lsafKt5-10">
          <mxGeometry width="180" height="180" as="geometry"/>
        </mxCell>
        <mxCell id="T8uGLuJxAfSS2lsafKt5-12" value="MapStateBikeRoute" style="rounded=0;whiteSpace=wrap;html=1;" vertex="1" parent="T8uGLuJxAfSS2lsafKt5-10">
          <mxGeometry x="18" y="20" width="146" height="60" as="geometry"/>
        </mxCell>
        <mxCell id="T8uGLuJxAfSS2lsafKt5-13" value="BikeRoutePresenter" style="rounded=0;whiteSpace=wrap;html=1;" vertex="1" parent="T8uGLuJxAfSS2lsafKt5-10">
          <mxGeometry x="18" y="100" width="146" height="60" as="geometry"/>
        </mxCell>
        <mxCell id="T8uGLuJxAfSS2lsafKt5-14" value="" style="group" vertex="1" connectable="0" parent="T8uGLuJxAfSS2lsafKt5-1">
          <mxGeometry x="820" y="60" width="180" height="180" as="geometry"/>
        </mxCell>
        <mxCell id="T8uGLuJxAfSS2lsafKt5-15" value="" style="rounded=1;whiteSpace=wrap;html=1;dashed=1;fillColor=none;" vertex="1" parent="T8uGLuJxAfSS2lsafKt5-14">
          <mxGeometry width="180" height="180" as="geometry"/>
        </mxCell>
        <mxCell id="T8uGLuJxAfSS2lsafKt5-16" value="MapStateCarRoute" style="rounded=0;whiteSpace=wrap;html=1;" vertex="1" parent="T8uGLuJxAfSS2lsafKt5-14">
          <mxGeometry x="18" y="20" width="146" height="60" as="geometry"/>
        </mxCell>
        <mxCell id="T8uGLuJxAfSS2lsafKt5-17" value="CarRoutePresenter" style="rounded=0;whiteSpace=wrap;html=1;" vertex="1" parent="T8uGLuJxAfSS2lsafKt5-14">
          <mxGeometry x="18" y="100" width="146" height="60" as="geometry"/>
        </mxCell>
        <mxCell id="T8uGLuJxAfSS2lsafKt5-18" value="" style="group" vertex="1" connectable="0" parent="T8uGLuJxAfSS2lsafKt5-1">
          <mxGeometry x="160" y="470" width="840" height="190" as="geometry"/>
        </mxCell>
        <mxCell id="T8uGLuJxAfSS2lsafKt5-19" value="" style="rounded=1;whiteSpace=wrap;html=1;fillColor=none;dashed=1;" vertex="1" parent="T8uGLuJxAfSS2lsafKt5-18">
          <mxGeometry width="840" height="190" as="geometry"/>
        </mxCell>
        <mxCell id="T8uGLuJxAfSS2lsafKt5-20" value="RouteSearchManager" style="rounded=0;whiteSpace=wrap;html=1;fillColor=#ffffff;" vertex="1" parent="T8uGLuJxAfSS2lsafKt5-18">
          <mxGeometry x="20" y="20" width="800" height="60" as="geometry"/>
        </mxCell>
        <mxCell id="T8uGLuJxAfSS2lsafKt5-21" value="RouteSearchService" style="rounded=0;whiteSpace=wrap;html=1;fillColor=#ffffff;" vertex="1" parent="T8uGLuJxAfSS2lsafKt5-18">
          <mxGeometry x="20" y="110" width="800" height="60" as="geometry"/>
        </mxCell>
        <mxCell id="T8uGLuJxAfSS2lsafKt5-30" value="" style="group" vertex="1" connectable="0" parent="T8uGLuJxAfSS2lsafKt5-1">
          <mxGeometry x="160" y="270" width="840" height="170" as="geometry"/>
        </mxCell>
        <mxCell id="T8uGLuJxAfSS2lsafKt5-23" value="" style="rounded=1;whiteSpace=wrap;html=1;dashed=1;fillColor=none;" vertex="1" parent="T8uGLuJxAfSS2lsafKt5-30">
          <mxGeometry width="840" height="170" as="geometry"/>
        </mxCell>
        <mxCell id="T8uGLuJxAfSS2lsafKt5-24" value="RoutePlanApi" style="rounded=0;whiteSpace=wrap;html=1;" vertex="1" parent="T8uGLuJxAfSS2lsafKt5-30">
          <mxGeometry x="20" y="20" width="800" height="60" as="geometry"/>
        </mxCell>
        <mxCell id="T8uGLuJxAfSS2lsafKt5-25" value="Region" style="rounded=0;whiteSpace=wrap;html=1;" vertex="1" parent="T8uGLuJxAfSS2lsafKt5-30">
          <mxGeometry x="20" y="100" width="120" height="60" as="geometry"/>
        </mxCell>
        <mxCell id="T8uGLuJxAfSS2lsafKt5-26" value="Statistic" style="rounded=0;whiteSpace=wrap;html=1;" vertex="1" parent="T8uGLuJxAfSS2lsafKt5-30">
          <mxGeometry x="160" y="100" width="120" height="60" as="geometry"/>
        </mxCell>
        <mxCell id="T8uGLuJxAfSS2lsafKt5-27" value="RouteHistory" style="rounded=0;whiteSpace=wrap;html=1;" vertex="1" parent="T8uGLuJxAfSS2lsafKt5-30">
          <mxGeometry x="300" y="100" width="120" height="60" as="geometry"/>
        </mxCell>
        <mxCell id="T8uGLuJxAfSS2lsafKt5-28" value="RouteDataManager" style="rounded=0;whiteSpace=wrap;html=1;" vertex="1" parent="T8uGLuJxAfSS2lsafKt5-30">
          <mxGeometry x="440" y="100" width="120" height="60" as="geometry"/>
        </mxCell>
        <mxCell id="T8uGLuJxAfSS2lsafKt5-29" value="..." style="rounded=0;whiteSpace=wrap;html=1;" vertex="1" parent="T8uGLuJxAfSS2lsafKt5-30">
          <mxGeometry x="580" y="100" width="120" height="60" as="geometry"/>
        </mxCell>
      </root>
    </mxGraphModel>
  </diagram>
</mxfile>
